<svg xmlns="http://www.w3.org/2000/svg" width="41" height="40" fill="none"><path stroke="#fff" stroke-width="2.4" d="M12.021 9.999a9.777 9.777 0 0 0 .146-1.667c0-1.768-.344-3.456-.969-5h18.605a13.296 13.296 0 0 0-.969 5c0 .562.052 1.119.147 1.667m-16.96 0c-.373 2.156-1.412 4.169-2.573 5.873a13.272 13.272 0 0 0-2.28 7.46c0 7.364 5.969 13.333 13.333 13.333s13.333-5.97 13.333-13.333c0-2.756-.836-5.317-2.27-7.443-1.161-1.705-2.207-3.73-2.583-5.89m-16.96 0h16.96"/><path stroke="#fff" stroke-width="2" d="M23.834 20.416c0-1.611-1.492-2.917-3.333-2.917m0 0c-1.841 0-3.334 1.306-3.334 2.917 0 1.61 1.593 2.481 3.334 2.916 1.666.417 3.333 1.306 3.333 2.917 0 1.61-1.492 2.917-3.333 2.917m0-11.667v-2.5m0 14.167c-1.841 0-3.334-1.306-3.334-2.917m3.334 2.917v2.5"/></svg>