<svg width="37" height="36" viewBox="0 0 37 36" fill="none" xmlns="http://www.w3.org/2000/svg">
<path d="M19.3382 34.8996C21.5646 31.8277 23.1121 28.4232 23.9806 24.8888M23.9806 11.1112C23.1121 7.57683 21.5646 4.17228 19.3382 1.1004M17.6618 1.1004C15.4354 4.17228 13.8879 7.57683 13.0194 11.1112M13.0194 24.8888C13.8879 28.4232 15.4354 31.8277 17.6618 34.8996M35.3996 18.8382C32.3277 21.0646 28.9232 22.6121 25.3888 23.4806M11.6112 23.4806C8.07683 22.6121 4.67228 21.0646 1.6004 18.8382M1.6004 17.1618C4.67228 14.9354 8.07683 13.3879 11.6112 12.5194M25.3888 12.5194C28.9232 13.3879 32.3277 14.9354 35.3996 17.1618M20.7467 1.22785C28.2942 2.22918 34.2708 8.20576 35.2721 15.7533C32.1408 13.6285 28.7026 12.1616 25.1476 11.3524C24.3384 7.79738 22.8715 4.3592 20.7467 1.22785ZM1.72785 15.7533C2.72918 8.20576 8.70576 2.22918 16.2533 1.22785C14.1285 4.3592 12.6616 7.79738 11.8524 11.3524C8.29738 12.1616 4.8592 13.6285 1.72785 15.7533ZM35.2721 20.2467C34.2708 27.7942 28.2942 33.7708 20.7467 34.7721C22.8715 31.6408 24.3384 28.2026 25.1476 24.6476C28.7026 23.8384 32.1408 22.3715 35.2721 20.2467ZM22.817 25.0817C21.9678 28.3027 20.5288 31.4032 18.5 34.2156C16.4712 31.4032 15.0322 28.3027 14.183 25.0817C17.045 25.4982 19.955 25.4982 22.817 25.0817ZM11.8524 24.6476C12.6616 28.2026 14.1285 31.6408 16.2533 34.7721C8.70576 33.7708 2.72918 27.7942 1.72785 20.2467C4.8592 22.3715 8.29738 23.8384 11.8524 24.6476ZM23.3143 22.8143C20.1306 23.374 16.8694 23.374 13.6857 22.8143C13.126 19.6306 13.126 16.3694 13.6857 13.1857C16.8694 12.626 20.1306 12.626 23.3143 13.1857C23.874 16.3694 23.874 19.6306 23.3143 22.8143ZM11.4183 13.683C11.0018 16.545 11.0018 19.455 11.4183 22.317C8.19731 21.4678 5.09684 20.0288 2.28436 18C5.09684 15.9712 8.19731 14.5322 11.4183 13.683ZM14.183 10.9183C15.0322 7.69731 16.4712 4.59684 18.5 1.78436C20.5288 4.59684 21.9678 7.69731 22.817 10.9183C19.955 10.5018 17.045 10.5018 14.183 10.9183ZM25.5817 22.317C25.9982 19.455 25.9982 16.545 25.5817 13.683C28.8027 14.5322 31.9032 15.9712 34.7156 18C31.9032 20.0288 28.8027 21.4678 25.5817 22.317ZM24.2385 23.7385C25.0059 19.9535 25.0059 16.0465 24.2385 12.2615C20.4535 11.4941 16.5465 11.4941 12.7615 12.2615C11.9941 16.0465 11.9941 19.9535 12.7615 23.7385C16.5465 24.5059 20.4535 24.5059 24.2385 23.7385Z" stroke="white" stroke-width="2.16"/>
</svg>
