<svg xmlns="http://www.w3.org/2000/svg" width="55" height="34" fill="none"><path stroke="#fff" stroke-width="2.267" d="M1.716 1.133h51.567v31.733H1.716z"/><path fill="#fff" fill-rule="evenodd" d="M34.17 15.334c.267-1.786-1.093-2.746-2.952-3.387l.603-2.42-1.473-.367-.588 2.356a59.863 59.863 0 0 0-1.18-.277l.592-2.372L27.7 8.5l-.603 2.419c-.32-.073-.636-.145-.94-.221v-.008l-2.03-.507-.392 1.573s1.093.25 1.07.266c.596.149.704.544.686.857l-.687 2.756c.04.01.094.026.153.05l-.155-.04-.964 3.862c-.073.181-.258.453-.675.35.015.021-1.07-.267-1.07-.267l-.732 1.686 1.917.478c.217.054.43.11.642.165l.408.106-.61 2.448 1.472.367.604-2.422c.401.11.791.21 1.173.305l-.601 2.41 1.472.367.61-2.443c2.511.476 4.4.284 5.194-1.987.641-1.83-.031-2.884-1.352-3.573.962-.222 1.687-.855 1.88-2.163Zm-3.365 4.718c-.418 1.679-3.046.984-4.247.667a20.327 20.327 0 0 0-.286-.074l.809-3.243c.1.025.223.053.362.084 1.242.279 3.79.85 3.363 2.566Zm-3.113-4.07c1.003.268 3.188.85 3.569-.674.389-1.56-1.736-2.03-2.774-2.26-.116-.026-.22-.049-.303-.07l-.734 2.941.242.063Z" clip-rule="evenodd"/><path stroke="#fff" stroke-width="2.267" d="M10.972 0c0 5.929-4.651 10.389-10.389 10.389M44.028 0c0 5.929 4.651 10.389 10.389 10.389M10.972 34c0-5.929-4.651-10.389-10.389-10.389M44.028 34c0-5.929 4.651-10.389 10.389-10.389"/></svg>