<svg xmlns="http://www.w3.org/2000/svg" width="518" height="406" viewBox="0 0 518.11 406.94"><title>Logo_VectorSVG</title><g><g id="1674511374571-793050_Layer_2_xA0_Image_1_"><path class="st0" d="M18.98 286.15c1.42-.98 3.45-2.78 5.58-4.45 4.14-3.23 8.11-6.66 12.32-9.82 2.97-2.23 5.66-4.81 8.6-7.08 4.54-3.51 8.89-7.25 13.44-10.74 1.3-1 1.95-.73 2.87.14 2.51 2.38 5.3 4.41 8.09 6.42 4.31 3.11 8.84 5.92 13.53 8.44 5.28 2.83 10.75 5.22 16.38 7.32 5.06 1.88 10.22 3.38 15.43 4.68 2.87.71 5.85 1.13 8.78 1.67 3.18.59 6.39.83 9.57 1.23 3.48.44 7.08.46 10.61.43 6.78-.05 13.58-.02 20.32-1.01 1.15-.17 2.27.19 3.42-.16 2.56-.78 5.27-.8 7.87-1.36 1.56-.33 3.19-.47 4.7-.96 1.49-.48 3.05-.58 4.53-1.11 2.02-.73 4.21-.99 6.24-1.7 2.88-1.01 5.73-2.15 8.58-3.23 4.06-1.54 7.95-3.44 11.74-5.51 4.38-2.39 8.59-5.07 12.66-7.99 4.55-3.27 8.87-6.81 13.04-10.52 3.64-3.25 6.96-6.86 10.44-10.29.43-.42.52-.67.04-1.12-4.43-4.24-8.6-8.74-12.82-13.2-2.98-3.15-6.21-6.05-9.27-9.11-3.69-3.69-7.33-7.43-11-11.14-1.34-1.35-1.42-1.37-2.82-.03-1.83 1.76-3.71 3.44-5.64 5.09-6.41 5.48-13.29 10.25-20.7 14.26-2.67 1.44-5.48 2.6-8.29 3.69-1.85.72-3.81 1.29-5.75 1.84-2.65.75-5.33 1.39-8.03 1.86-2.29.4-4.65.52-6.95.83-3.44.46-6.85.42-10.29.5-2.41.06-4.77-.5-7.14-.55-2.22-.05-4.33-.59-6.44-.97-2.29-.42-4.58-1.1-6.84-1.81-3.61-1.14-7.06-2.61-10.43-4.29-3.89-1.93-7.48-4.32-10.96-6.91-1.07-.8-1.12-1.2-.06-2.1.99-.83 2.05-1.57 3.05-2.38 3.45-2.8 6.89-5.63 10.34-8.42 4.05-3.28 8.11-6.54 12.17-9.8 3.39-2.73 6.78-5.46 10.18-8.18 2.64-2.12 5.32-4.19 7.95-6.32 2.29-1.86 4.57-3.76 6.86-5.62 3.97-3.22 7.97-6.4 11.96-9.59 3.54-2.83 7.09-5.67 10.55-8.6.9-.76 1.61-.78 2.53-.04 3.09 2.48 6.29 4.81 9.32 7.36 3.03 2.56 6.22 4.92 9.28 7.44 4.98 4.1 10.17 7.94 15.23 11.93 6.08 4.79 12.14 9.61 18.16 14.47.93.75 1.51.63 2.29-.15 1.42-1.42 2.87-2.83 4.43-4.1 4.02-3.26 7.58-7.01 11.48-10.4 3.01-2.61 5.85-5.45 8.77-8.19 2.65-2.49 5.39-4.89 8.07-7.35 3.2-2.93 6.38-5.89 9.58-8.83 3.69-3.4 7.45-6.74 11.07-10.22 3.87-3.71 7.89-7.27 11.84-10.89 4.3-3.93 8.59-7.89 12.9-11.81 3.95-3.6 7.99-7.11 11.77-10.9 2.94-2.95 6.21-5.54 9.25-8.4 4.87-4.59 9.91-8.99 14.84-13.52 4.82-4.43 9.57-8.95 14.4-13.37.95-.87 1.86-1.78 3.45-1.77 21.64.06 43.29.04 64.93.04.38 0 .77-.02 1.15 0 .88.05 1.27.54 1.27 1.4 0 3.78.02 7.56.02 11.34 0 1.68-.03 3.36-.01 5.04 0 .46-.01 1.12.77.6 1.54-1.02 3.16-1.9 4.77-2.81 4.82-2.72 9.54-5.62 14.33-8.39 4.8-2.77 9.67-5.43 14.47-8.21 6.62-3.82 13.2-7.7 19.81-11.55 4.34-2.53 8.68-5.05 13.04-7.55 1.92-1.1 3.88-2.13 5.93-3.25-24.35-14.05-48.72-28.1-73.13-42.18v13.93c0 2.09-.08 2.17-2.19 2.17h-73.72c-.86 0-1.65.04-2.39.71-3.87 3.56-7.81 7.06-11.71 10.59-3.08 2.79-6.14 5.59-9.2 8.39-2.05 1.87-4.12 3.72-6.17 5.59-5.37 4.9-10.71 9.83-16.14 14.66-5.4 4.79-10.69 9.7-16.03 14.56-3.18 2.9-6.32 5.86-9.52 8.73-5.04 4.53-9.94 9.22-15.09 13.63-2.57 2.2-4.99 4.6-7.49 6.9-5.48 5.06-11.02 10.05-16.55 15.05-4.72 4.26-9.4 8.56-14.03 12.91-.97.92-1.65.83-2.58.07-2.32-1.91-4.67-3.78-7.06-5.6-4.6-3.5-9.1-7.14-13.62-10.74-5.08-4.05-10.13-8.15-15.23-12.17-5.4-4.26-10.87-8.45-16.27-12.71-3.14-2.48-3.05-2.48-5.51.6-2.83 3.56-5.75 7.03-8.64 10.55-3.34 4.06-6.78 8.02-10.11 12.09-3.75 4.59-7.64 9.06-11.38 13.67-5.06 6.24-10.65 12.04-15.18 18.71-2.77 4.09-6.35 7.51-9.42 11.37-4.85 6.09-9.95 11.98-15 17.92-3.9 4.59-7.8 9.17-11.65 13.81-3.36 4.05-6.91 7.94-10.3 11.96-4.16 4.93-8.23 9.94-12.38 14.88-3.51 4.17-7.12 8.26-10.62 12.44-5.4 6.45-10.74 12.96-16.12 19.43-3.58 4.3-7.2 8.56-10.78 12.85-2.6 3.11-5.09 6.33-7.81 9.35-1.78 2.06-3.28 4.4-4.53 5.63zM149.56 25.94c-5.74.04-10.33.01-14.93.5-4.95.53-9.88 1.17-14.76 2.11-4.27.83-8.49 1.91-12.66 3.18-5.03 1.53-9.97 3.32-14.75 5.47-7.78 3.49-15.22 7.61-22.17 12.59-3.97 2.85-7.83 5.85-11.41 9.14a124.485 124.485 0 0 0-18.1 20.71c-4.42 6.34-8.25 12.98-11.47 19.99-2.02 4.38-3.71 8.89-5.27 13.44-1.54 4.48-2.73 9.06-3.7 13.68-.8 3.83-1.42 7.71-1.89 11.61-.47 3.96-.96 7.94-1.02 11.9-.07 4.66-.48 9.35.33 14.02.39 2.29.12 4.68.45 6.98.88 6 1.78 11.99 3.32 17.88 1.55 5.88 3.39 11.66 5.67 17.29 1.91 4.69 4.19 9.2 6.6 13.66 2.99 5.51 6.56 10.62 10.2 15.7.7.98 1.2.9 1.94-.02 2.1-2.61 4.27-5.16 6.44-7.71 3.31-3.91 6.67-7.78 9.97-11.7C66.7 211.2 71 206 75.34 200.83c2.18-2.6 4.39-5.18 6.63-7.74.72-.82.67-1.55.22-2.48-.71-1.5-1.31-3.06-1.89-4.62-1.57-4.22-2.75-8.54-3.67-12.96-.99-4.74-1.59-9.52-1.77-14.34-.22-6.18.09-12.33 1.12-18.46.88-5.25 2.15-10.37 3.97-15.35 2.03-5.57 4.64-10.87 7.9-15.86 3.27-4.99 6.99-9.59 11.36-13.65 2.84-2.64 5.85-5.07 9.09-7.23 3.68-2.44 7.5-4.61 11.56-6.29 3.87-1.6 7.86-2.85 11.98-3.76 4.7-1.04 9.44-1.52 14.21-1.77 3.06-.16 6.1.25 9.16.45 6.41.43 12.58 1.89 18.62 3.89 6.78 2.25 13.12 5.51 19.12 9.35 6.29 4.03 12.23 8.56 17.65 13.72.83.79 1.31.64 1.97-.12 2.83-3.31 5.7-6.6 8.55-9.89 4.32-5 8.62-10.01 12.95-14.99 3.83-4.41 7.65-8.83 11.53-13.19.81-.91.77-1.51-.11-2.25-.99-.83-1.93-1.71-2.86-2.61-5.72-5.56-12.03-10.38-18.69-14.74a108.2 108.2 0 0 0-17.05-9.12c-3.9-1.65-7.85-3.17-11.93-4.4-3.15-.95-6.3-1.91-9.49-2.64-3.06-.7-6.19-1.23-9.29-1.79-5.1-.91-10.24-1.31-15.37-1.79-4.13-.37-8.27-.35-11.25-.26zm234.01 107.59v-.01h-59.32c-.68 0-1.3.05-1.86.57-5.66 5.3-11.4 10.53-17.12 15.77-6.04 5.53-12.02 11.13-18.09 16.63-5.4 4.88-10.67 9.91-16.04 14.83-.84.77-1.06 1.57-1.06 2.65.02 31.46.02 62.92.02 94.37 0 1.89 0 1.89 1.91 1.89 16.99 0 33.98 0 50.96.01 2.16 0 2.15.02 2.15-2.08 0-31.03-.01-62.05-.01-93.08 0-1.93 0-1.93 1.88-1.93 38.58 0 77.17-.01 115.75.03 1.29 0 1.73-.3 1.72-1.68-.05-15.35-.03-30.69-.03-46.04 0-1.92 0-1.92-1.85-1.92-19.66-.01-39.33-.01-59.01-.01zM304.34 30.25c-10.84.01-21.69.02-32.53-.02-1.27-.01-1.75.27-1.73 1.67.08 5.18.03 10.36.03 15.53l-.03 44.16c0 .27-.17.61.17.77.33.16.52-.15.72-.33 1.07-.96 2.12-1.94 3.19-2.9 6.15-5.55 12.37-11.02 18.44-16.66 5.68-5.28 11.46-10.45 17.2-15.67 5.7-5.19 11.39-10.39 17.09-15.59l10.41-9.48c.37-.34 1.18-.5.98-1.08-.21-.64-1-.31-1.54-.39-.05-.01-.1 0-.14 0-10.76-.01-21.51-.01-32.26-.01z" fill="#ffffff"></path><path class="st1" d="M18.98 286.15c1.25-1.23 2.75-3.57 4.59-5.62 2.71-3.02 5.2-6.23 7.81-9.35 3.59-4.29 7.21-8.55 10.78-12.85 5.38-6.47 10.72-12.98 16.12-19.43 3.5-4.18 7.11-8.27 10.62-12.44 4.15-4.94 8.22-9.95 12.38-14.88 3.39-4.02 6.94-7.91 10.3-11.96 3.84-4.64 7.75-9.22 11.65-13.81 5.05-5.93 10.15-11.83 15-17.92 3.07-3.85 6.64-7.28 9.42-11.37 4.53-6.67 10.13-12.47 15.18-18.71 3.73-4.61 7.63-9.08 11.38-13.67 3.32-4.07 6.77-8.03 10.11-12.09 2.89-3.51 5.81-6.99 8.64-10.55 2.45-3.08 2.37-3.08 5.51-.6 5.4 4.27 10.87 8.45 16.27 12.71 5.1 4.03 10.15 8.12 15.23 12.17 4.52 3.6 9.02 7.24 13.62 10.74 2.39 1.82 4.74 3.69 7.06 5.6.92.76 1.6.85 2.58-.07 4.63-4.35 9.31-8.66 14.03-12.91 5.54-5 11.08-9.99 16.55-15.05 2.49-2.3 4.91-4.7 7.49-6.9 5.16-4.41 10.05-9.1 15.09-13.63 3.2-2.88 6.34-5.83 9.52-8.73 5.33-4.87 10.63-9.77 16.03-14.56 5.44-4.83 10.77-9.76 16.14-14.66 2.05-1.87 4.12-3.72 6.17-5.59 3.07-2.8 6.13-5.61 9.2-8.39 3.9-3.53 7.83-7.03 11.71-10.59.73-.67 1.52-.71 2.39-.71h73.72c2.11 0 2.19-.07 2.19-2.17V14.23c24.41 14.08 48.78 28.14 73.13 42.18-2.05 1.12-4.01 2.15-5.93 3.25-4.36 2.5-8.7 5.02-13.04 7.55-6.6 3.85-13.19 7.73-19.81 11.55-4.8 2.77-9.67 5.43-14.47 8.21-4.79 2.77-9.51 5.67-14.33 8.39-1.61.91-3.23 1.78-4.77 2.81-.78.52-.77-.14-.77-.6-.01-1.68.01-3.36.01-5.04 0-3.78-.02-7.56-.02-11.34 0-.87-.39-1.36-1.27-1.4-.38-.02-.77 0-1.15 0-21.64 0-43.29.02-64.93-.04-1.59 0-2.5.9-3.45 1.77-4.83 4.42-9.58 8.94-14.4 13.37-4.93 4.53-9.97 8.93-14.84 13.52-3.03 2.86-6.31 5.45-9.25 8.4-3.78 3.79-7.82 7.3-11.77 10.9-4.31 3.92-8.6 7.87-12.9 11.81-3.95 3.62-7.97 7.18-11.84 10.89-3.63 3.47-7.38 6.81-11.07 10.22-3.19 2.94-6.37 5.9-9.58 8.83-2.68 2.46-5.42 4.86-8.07 7.35-2.92 2.74-5.76 5.58-8.77 8.19-3.91 3.39-7.47 7.14-11.48 10.4-1.56 1.26-3.01 2.68-4.43 4.1-.79.78-1.36.9-2.29.15-6.03-4.86-12.09-9.68-18.16-14.47-5.06-3.99-10.25-7.83-15.23-11.93-3.06-2.52-6.25-4.88-9.28-7.44-3.03-2.55-6.23-4.89-9.32-7.36-.92-.73-1.63-.71-2.53.04-3.47 2.93-7.01 5.77-10.55 8.6-3.99 3.19-7.99 6.37-11.96 9.59-2.3 1.86-4.57 3.76-6.86 5.62-2.62 2.13-5.31 4.21-7.95 6.32-3.4 2.72-6.78 5.46-10.18 8.18-4.06 3.27-8.12 6.52-12.17 9.8-3.46 2.8-6.89 5.62-10.34 8.42-1 .81-2.07 1.55-3.05 2.38-1.07.89-1.01 1.3.06 2.1 3.47 2.59 7.07 4.97 10.96 6.91 3.38 1.68 6.82 3.15 10.43 4.29 2.26.71 4.55 1.39 6.84 1.81 2.11.39 4.22.93 6.44.97 2.37.05 4.73.6 7.14.55 3.43-.08 6.85-.04 10.29-.5 2.29-.31 4.66-.43 6.95-.83 2.7-.48 5.38-1.11 8.03-1.86 1.94-.55 3.9-1.12 5.75-1.84 2.81-1.09 5.62-2.25 8.29-3.69 7.41-4.01 14.29-8.78 20.7-14.26 1.93-1.65 3.82-3.33 5.64-5.09 1.4-1.34 1.48-1.33 2.82.03 3.67 3.71 7.31 7.46 11 11.14 3.07 3.06 6.3 5.97 9.27 9.11 4.22 4.46 8.38 8.95 12.82 13.2.48.46.39.7-.04 1.12-3.48 3.43-6.8 7.04-10.44 10.29-4.17 3.71-8.49 7.25-13.04 10.52-4.07 2.92-8.28 5.6-12.66 7.99-3.79 2.07-7.67 3.97-11.74 5.51-2.86 1.08-5.7 2.22-8.58 3.23-2.03.71-4.22.97-6.24 1.7-1.49.54-3.04.63-4.53 1.11-1.51.49-3.13.63-4.7.96-3.88.79-10.15 1.35-11.29 1.52-7.94.76-13.54.96-20.32 1.01-3.53.03-7.13.01-10.61-.43-3.18-.4-6.4-.65-9.57-1.23-2.93-.54-5.92-.96-8.78-1.67-5.21-1.3-10.37-2.8-15.43-4.68-5.63-2.09-11.1-4.48-16.38-7.32a120.93 120.93 0 0 1-13.53-8.44c-2.79-2.01-5.58-4.05-8.09-6.42-.92-.88-1.57-1.14-2.87-.14-4.55 3.49-8.9 7.23-13.44 10.74-2.93 2.27-5.63 4.85-8.6 7.08-4.2 3.15-8.18 6.58-12.32 9.82-2.19 1.66-4.22 3.46-5.64 4.44z" fill="#ffffff"></path><path class="st2" d="M149.56 25.94c2.98-.09 7.12-.11 11.22.28 5.13.48 10.28.87 15.37 1.79 3.11.56 6.23 1.09 9.29 1.79 3.19.73 6.34 1.69 9.49 2.64 4.07 1.23 8.03 2.74 11.93 4.4 5.95 2.52 11.65 5.58 17.05 9.12 6.66 4.36 12.97 9.17 18.69 14.74.92.9 1.87 1.78 2.86 2.61.89.75.93 1.34.11 2.25-3.88 4.36-7.71 8.77-11.53 13.19-4.33 4.99-8.63 10-12.95 14.99-2.85 3.3-5.71 6.58-8.55 9.89-.66.77-1.13.92-1.97.12-5.42-5.16-11.36-9.69-17.65-13.72-6-3.84-12.34-7.11-19.12-9.35-6.04-2-12.21-3.47-18.62-3.89-3.05-.2-6.1-.61-9.16-.45-4.77.25-9.51.73-14.21 1.77-4.12.91-8.11 2.16-11.98 3.76-4.06 1.68-7.89 3.85-11.56 6.29-3.24 2.15-6.25 4.59-9.09 7.23-4.37 4.06-8.09 8.66-11.36 13.65-3.26 4.98-5.87 10.28-7.9 15.86-1.81 4.98-3.08 10.11-3.97 15.35-1.03 6.13-1.34 12.28-1.12 18.46.17 4.82.78 9.6 1.77 14.34.92 4.42 2.11 8.74 3.67 12.96.58 1.56 1.17 3.12 1.89 4.62.45.94.5 1.66-.22 2.48-2.24 2.56-4.45 5.14-6.63 7.74C71 206 66.7 211.2 62.36 216.36c-3.3 3.92-6.65 7.79-9.97 11.7-2.17 2.55-4.34 5.1-6.44 7.71-.74.92-1.24 1-1.94.02-3.64-5.08-7.22-10.19-10.2-15.7-2.41-4.46-4.7-8.97-6.6-13.66-2.29-5.63-4.13-11.4-5.67-17.29-1.55-5.89-2.45-11.88-3.32-17.88-.34-2.3-.06-4.7-.45-6.98-.8-4.67-.4-9.36-.33-14.02.06-3.97.55-7.94 1.02-11.9.47-3.9 1.09-7.78 1.89-11.61.97-4.62 2.16-9.21 3.7-13.68 1.56-4.56 3.26-9.07 5.27-13.44 3.22-7 7.06-13.65 11.47-19.99a125.35 125.35 0 0 1 18.1-20.71c3.59-3.29 7.44-6.29 11.41-9.14 6.95-4.98 14.39-9.1 22.17-12.59 4.79-2.15 9.72-3.94 14.75-5.47 4.17-1.27 8.39-2.35 12.66-3.18 4.88-.94 9.81-1.59 14.76-2.11 4.59-.49 9.18-.46 14.92-.5z" fill="#0764FE"></path><path class="st2" d="M383.57 133.53h59.03c1.85 0 1.85 0 1.85 1.92 0 15.35-.02 30.69.03 46.04 0 1.38-.43 1.68-1.72 1.68-38.58-.03-77.17-.02-115.75-.03-1.88 0-1.88-.01-1.88 1.93 0 31.03 0 62.05.01 93.08 0 2.1 0 2.08-2.15 2.08-16.99-.01-33.98 0-50.96-.01-1.91 0-1.91 0-1.91-1.89 0-31.46 0-62.92-.02-94.37 0-1.07.23-1.88 1.06-2.65 5.37-4.92 10.64-9.94 16.04-14.83 6.07-5.49 12.05-11.1 18.09-16.63 5.72-5.24 11.46-10.46 17.12-15.77.56-.52 1.18-.57 1.86-.57h59.32c-.02.01-.02.01-.02.02z" fill="#0764FE"></path><path class="st2" d="M304.34 30.25h32.24c.05 0 .1-.01.14 0 .54.09 1.33-.24 1.54.39.19.58-.61.74-.98 1.08l-10.41 9.48c-5.7 5.19-11.38 10.4-17.09 15.59-5.74 5.22-11.52 10.39-17.2 15.67-6.06 5.64-12.29 11.11-18.44 16.66-1.07.96-2.12 1.94-3.19 2.9-.2.18-.39.49-.72.33-.34-.16-.17-.5-.17-.77l.03-44.16c0-5.18.05-10.36-.03-15.53-.02-1.39.46-1.67 1.73-1.67 10.86.05 21.71.03 32.55.03z" fill="#0764FE"></path></g><g id="1674511374571-793050_CloudFi"><path d="M105.26 362.14c-1.68 5.34-4.26 10.09-7.75 14.25-1.49 1.8-3.23 3.56-5.23 5.26-2 1.71-4.3 3.23-6.88 4.56-2.58 1.34-5.51 2.41-8.77 3.21-3.26.81-6.9 1.21-10.9 1.21-6.01 0-11.66-1.1-16.96-3.31-5.3-2.2-9.92-5.2-13.86-8.99-3.94-3.79-7.06-8.23-9.35-13.32s-3.44-10.53-3.44-16.3 1.15-11.21 3.44-16.3 5.41-9.53 9.35-13.32c3.94-3.79 8.56-6.79 13.86-8.99 5.3-2.2 10.95-3.31 16.96-3.31 4 0 7.64.41 10.9 1.21 3.26.81 6.19 1.9 8.77 3.26 2.58 1.37 4.88 2.9 6.88 4.61 2 1.71 3.75 3.43 5.23 5.17 3.49 4.22 6.07 8.98 7.75 14.25H90.15a28.561 28.561 0 0 0-5.33-7.55c-1.87-1.86-4.39-3.59-7.56-5.17s-7.01-2.38-11.53-2.38c-4.07 0-7.91.75-11.53 2.24-3.62 1.49-6.77 3.53-9.45 6.1-2.68 2.58-4.8 5.61-6.35 9.08-1.55 3.48-2.33 7.17-2.33 11.09s.78 7.61 2.33 11.09c1.55 3.48 3.67 6.51 6.35 9.08 2.68 2.58 5.83 4.61 9.45 6.1 3.62 1.49 7.46 2.24 11.53 2.24 4.59 0 8.45-.78 11.58-2.33 3.13-1.55 5.64-3.29 7.51-5.22 2.2-2.17 3.97-4.69 5.33-7.55h15.11z" fill="#ffffff"></path><path d="M112.53 301.76h11.63v87.21h-11.63v-87.21z" fill="#ffffff"></path><path d="M126.87 358.78c0-4.41.87-8.54 2.62-12.39 1.74-3.85 4.12-7.22 7.12-10.11s6.51-5.17 10.51-6.85c4-1.68 8.3-2.52 12.89-2.52s8.88.85 12.89 2.56c4 1.71 7.51 4.02 10.51 6.94 3 2.92 5.38 6.31 7.12 10.16 1.74 3.85 2.62 7.92 2.62 12.21 0 4.41-.87 8.54-2.62 12.39-1.74 3.85-4.12 7.22-7.12 10.11s-6.51 5.17-10.51 6.85c-4.01 1.68-8.3 2.52-12.89 2.52s-8.88-.84-12.89-2.52c-4.01-1.68-7.51-3.96-10.51-6.85s-5.38-6.26-7.12-10.11c-1.75-3.85-2.62-7.98-2.62-12.39zm11.63 0c0 2.86.56 5.54 1.7 8.06 1.13 2.52 2.67 4.71 4.6 6.57s4.21 3.34 6.83 4.43c2.62 1.09 5.41 1.63 8.38 1.63 2.97 0 5.77-.54 8.38-1.63 2.62-1.09 4.89-2.56 6.83-4.43s3.47-4.05 4.6-6.57c1.13-2.52 1.7-5.2 1.7-8.06 0-2.86-.57-5.54-1.7-8.06-1.13-2.52-2.67-4.71-4.6-6.57s-4.21-3.34-6.83-4.43c-2.62-1.09-5.41-1.63-8.38-1.63-2.97 0-5.77.54-8.38 1.63-2.62 1.09-4.89 2.56-6.83 4.43s-3.47 4.05-4.6 6.57c-1.14 2.52-1.7 5.2-1.7 8.06z" fill="#ffffff"></path><path d="M254.97 383.94c-1.42 1.24-3.2 2.36-5.33 3.35-1.81.87-4.05 1.65-6.73 2.33-2.68.68-5.83 1.02-9.45 1.02-3.62 0-7.27-.47-10.95-1.4s-7.07-2.58-10.17-4.94c-3.1-2.36-5.73-5.61-7.9-9.74s-3.54-9.39-4.12-15.79v-30.19h11.63v30.19c.19 3.91 1.1 7.36 2.71 10.34.64 1.3 1.5 2.58 2.57 3.82 1.07 1.24 2.34 2.34 3.83 3.31 1.49.96 3.25 1.74 5.28 2.33 2.03.59 4.41.88 7.12.88s5.09-.29 7.12-.88c2.04-.59 3.79-1.37 5.28-2.33 1.49-.96 2.74-2.06 3.78-3.31 1.03-1.24 1.9-2.52 2.62-3.82 1.61-2.98 2.52-6.43 2.71-10.34v-30.19h11.63v60.38h-11.63v-5.02z" fill="#ffffff"></path><path d="M325.42 388.97v-5.96c-.45.5-1.28 1.17-2.47 2-1.2.84-2.71 1.68-4.55 2.52-1.84.84-3.97 1.57-6.4 2.19-2.42.62-5.12.93-8.09.93-4.59 0-8.88-.84-12.89-2.52-4.01-1.68-7.51-3.96-10.51-6.85s-5.38-6.26-7.12-10.11c-1.74-3.85-2.62-7.98-2.62-12.39s.87-8.54 2.62-12.39c1.74-3.85 4.12-7.22 7.12-10.11s6.51-5.17 10.51-6.85c4-1.68 8.3-2.52 12.89-2.52 2.97 0 5.57.25 7.8.75 2.23.5 4.2 1.12 5.91 1.86 1.71.75 3.2 1.57 4.46 2.47 1.26.9 2.37 1.76 3.34 2.56v-32.8h11.63v87.21h-11.63zm-43.03-30.19c0 2.61.61 5.14 1.84 7.59s2.86 4.66 4.89 6.62c2.04 1.96 4.33 3.53 6.88 4.71 2.55 1.18 5.18 1.77 7.9 1.77s5.34-.59 7.9-1.77c2.55-1.18 4.84-2.75 6.88-4.71 2.03-1.96 3.67-4.16 4.89-6.62 1.23-2.45 1.84-4.99 1.84-7.59s-.62-5.14-1.84-7.59a24.332 24.332 0 0 0-4.89-6.62 25.266 25.266 0 0 0-6.88-4.71c-2.55-1.18-5.18-1.77-7.9-1.77s-5.35.59-7.9 1.77a25.046 25.046 0 0 0-6.88 4.71c-2.03 1.96-3.67 4.16-4.89 6.62-1.22 2.45-1.84 4.98-1.84 7.59z" fill="#ffffff"></path><path d="M344.6 308.47H407v13.42h-48.45v20.13h34.88v13.42h-34.88v33.54H344.6v-80.51z" fill="#ffffff"></path><path d="M415.24 316.29c0-1.43.6-2.72 1.79-3.87s2.53-1.72 4.02-1.72c1.49 0 2.83.57 4.02 1.72 1.19 1.15 1.79 2.44 1.79 3.87 0 1.43-.6 2.72-1.79 3.87-1.2 1.15-2.54 1.72-4.02 1.72-1.49 0-2.83-.57-4.02-1.72-1.19-1.15-1.79-2.44-1.79-3.87zm0 12.3h11.63v60.38h-11.63v-60.38z" fill="#ffffff"></path></g></g></svg>