<?xml version="1.0" encoding="utf-8"?>
<!-- Generator: Adobe Illustrator 27.5.0, SVG Export Plug-In . SVG Version: 6.00 Build 0)  -->
<svg version="1.1" id="Layer_1" xmlns="http://www.w3.org/2000/svg" xmlns:xlink="http://www.w3.org/1999/xlink" x="0px" y="0px"
	 viewBox="0 0 800 300" style="enable-background:new 0 0 800 300;" xml:space="preserve">
<style type="text/css">
	.st0{fill:#121312;}
	.st1{fill:#FFFFFF;}
</style>
<g>
	<path class="st1" d="M188.02,119.25l-31.18-31.18c-0.26-0.26-0.61-0.41-0.98-0.41H102.4c-0.77,0-1.39,0.62-1.39,1.39v25.75
		c0,0.37,0.15,0.72,0.41,0.98l31.78,31.78c1.35,1.35,1.35,3.55,0,4.9l-31.78,31.78c-0.26,0.26-0.41,0.61-0.41,0.98v25.75
		c0,0.77,0.62,1.39,1.39,1.39h53.45c0.37,0,0.72-0.15,0.98-0.41l31.18-31.18c1.95-1.95,4.59-3.04,7.35-3.04h28.94
		c0.77,0,1.39-0.62,1.39-1.39v-52.64c0-0.77-0.62-1.39-1.39-1.39h-28.94C192.61,122.29,189.97,121.2,188.02,119.25z M137.03,177.71
		c-0.77,0-1.39-0.62-1.39-1.39V150v-26.32c0-0.77,0.62-1.39,1.39-1.39h52.64c0.77,0,1.39,0.62,1.39,1.39v52.64
		c0,0.77-0.62,1.39-1.39,1.39H137.03z"/>
	<g>
		<path class="st1" d="M310.62,152.64c0-23.83,14.55-41.13,39.18-41.13c20.39,0,34.36,11.91,37.8,32.07h-9.97
			c-2.98-14.66-13.29-23.25-27.83-23.25c-17.98,0-29.1,12.49-29.1,32.3c0,20.5,11.11,32.76,29.1,32.76
			c15.01,0,24.74-8.13,27.83-23.25h9.97c-3.55,20.85-16.84,32.07-37.8,32.07C325.17,194.21,310.62,176.92,310.62,152.64z"/>
		<path class="st1" d="M399.41,192.96v-85.91h9.51v85.91H399.41z"/>
		<path class="st1" d="M419,162.03c0-20.28,13.29-31.16,29.78-31.16c19.36,0,29.78,13.98,29.78,31.16
			c0,20.96-12.71,32.19-29.78,32.19C429.31,194.21,419,180.36,419,162.03z M468.83,162.03c0-13.63-7.9-22.91-20.05-22.91
			c-12.14,0-20.05,9.28-20.05,22.91c0,15.58,9.05,23.94,20.05,23.94C461.72,185.97,468.83,175.2,468.83,162.03z"/>
		<path class="st1" d="M487.75,172.79v-40.55h9.51v40.2c0,8.71,6.07,13.4,14.66,13.4c11.34,0,17.52-7.56,17.64-16.72v-36.88h9.51
			v60.71h-7.56l-0.8-9.16c-4.01,6.87-11.34,10.42-19.7,10.42C496.23,194.21,487.75,185.17,487.75,172.79z"/>
		<path class="st1" d="M548.98,162.26c0-18.56,11.23-31.39,27.49-31.39c9.16,0,16.84,4.01,21.19,10.42v-34.25h9.51v85.91h-7.56
			l-1.03-11.68c-4.01,7.9-12.03,12.94-21.99,12.94C560.32,194.21,548.98,181.16,548.98,162.26z M597.67,162.03
			c0-13.63-7.79-23.03-19.01-23.03c-11.68,0-19.82,9.51-19.82,23.25c0,13.97,7.9,23.71,19.24,23.71
			C589.65,185.97,597.67,176.12,597.67,162.03z"/>
		<path class="st1" d="M622.4,192.96v-80.18h54.64v8.82h-45.02v26h41.58v8.82h-41.58v36.54H622.4z"/>
		<path class="st1" d="M684.89,114.95c0-4.01,3.09-6.99,7.1-6.99c4.01,0,6.99,2.98,6.99,6.99s-2.98,7.1-6.99,7.1
			C687.99,122.05,684.89,118.96,684.89,114.95z M687.18,192.96v-60.71h9.51v60.71H687.18z"/>
	</g>
</g>
</svg>
