
<svg width="1000" height="1000" viewBox="0 0 1000 1000" fill="none" xmlns="http://www.w3.org/2000/svg">
<path d="M463.07 465.79C515.742 465.79 558.44 423.092 558.44 370.42C558.44 317.749 515.742 275.05 463.07 275.05C410.399 275.05 367.7 317.749 367.7 370.42C367.7 423.092 410.399 465.79 463.07 465.79Z" stroke="#1F63C9" stroke-width="20" stroke-miterlimit="10"/>
<path d="M309.88 643.81V582.1C309.88 538.04 345.6 502.32 389.66 502.32H543.17" stroke="#1F63C9" stroke-width="20" stroke-miterlimit="10"/>
<path d="M254.57 374.84C307.242 374.84 349.94 332.141 349.94 279.47C349.94 226.799 307.242 184.1 254.57 184.1C201.899 184.1 159.2 226.799 159.2 279.47C159.2 332.141 201.899 374.84 254.57 374.84Z" stroke="#42CACA" stroke-width="20" stroke-miterlimit="10"/>
<path d="M101.38 552.87V491.16C101.38 447.1 137.1 411.38 181.16 411.38H334.67" stroke="#42CACA" stroke-width="20" stroke-miterlimit="10"/>
<path d="M832.75 502.32H585.03V750.04H832.75V502.32Z" stroke="white" stroke-width="20" stroke-miterlimit="10"/>
<path d="M804.846 722.127V530.217H612.936V722.127H804.846Z" stroke="white" stroke-width="20" stroke-miterlimit="10"/>
<path d="M674.3 502.32V436.45" stroke="white" stroke-width="20" stroke-miterlimit="10"/>
<path d="M743.48 502.32V436.45" stroke="white" stroke-width="20" stroke-miterlimit="10"/>
<path d="M674.3 815.91V750.03" stroke="white" stroke-width="20" stroke-miterlimit="10"/>
<path d="M743.48 815.91V750.03" stroke="white" stroke-width="20" stroke-miterlimit="10"/>
<path d="M832.75 591.59H898.62" stroke="white" stroke-width="20" stroke-miterlimit="10"/>
<path d="M832.75 660.76H898.62" stroke="white" stroke-width="20" stroke-miterlimit="10"/>
<path d="M519.16 591.59H585.03" stroke="white" stroke-width="20" stroke-miterlimit="10"/>
<path d="M519.16 660.76H585.03" stroke="white" stroke-width="20" stroke-miterlimit="10"/>
</svg>
