
<svg width="1000" height="1000" viewBox="0 0 1000 1000" fill="none" xmlns="http://www.w3.org/2000/svg">
<path d="M692.359 798.2C775.136 798.2 842.24 731.096 842.24 648.32C842.24 565.544 775.136 498.44 692.359 498.44C609.583 498.44 542.479 565.544 542.479 648.32C542.479 731.096 609.583 798.2 692.359 798.2Z" stroke="#1F63C9" stroke-width="20" stroke-miterlimit="10"/>
<path d="M398.489 501.56C481.266 501.56 548.369 434.456 548.369 351.68C548.369 268.903 481.266 201.8 398.489 201.8C315.713 201.8 248.609 268.903 248.609 351.68C248.609 434.456 315.713 501.56 398.489 501.56Z" stroke="white" stroke-width="20" stroke-miterlimit="10"/>
<path d="M157.76 781.32V684.34C157.76 615.1 213.89 558.97 283.13 558.97H524.37" stroke="white" stroke-width="20" stroke-miterlimit="10"/>
<path d="M213.569 781.32V684.34C213.569 615.1 269.699 558.97 338.939 558.97" stroke="white" stroke-width="20" stroke-miterlimit="10"/>
<path d="M785.97 648.32H598.76" stroke="#42CACA" stroke-width="20" stroke-miterlimit="10"/>
<path d="M692.359 554.71V741.92" stroke="#42CACA" stroke-width="20" stroke-miterlimit="10"/>
</svg>
