
<svg width="1000" height="1000" viewBox="0 0 1000 1000" fill="none" xmlns="http://www.w3.org/2000/svg">
<path d="M645.409 381.03H772.879V269.66H227.119V381.03H354.589" stroke="white" stroke-width="20" stroke-miterlimit="10"/>
<path d="M617.5 325.34H354.59V702.43H617.5V325.34Z" stroke="white" stroke-width="20" stroke-miterlimit="10"/>
<path d="M270.139 325.34H729.859" stroke="white" stroke-width="20" stroke-miterlimit="10"/>
<path d="M382.488 730.34H645.408V325.34" stroke="#42CACA" stroke-width="20" stroke-miterlimit="10"/>
<path d="M529.588 550.45C529.588 535.53 516.288 522.48 488.928 510.56C465.348 500.36 458.158 493.95 458.158 483.11C458.158 467.88 469.628 458.78 488.838 458.78C509.078 458.78 520.648 471.33 521.868 483.75H531.518C529.888 466.39 515.528 452.52 495.948 449.7L494.398 449.48V433.25H484.508V449.33L482.878 449.5C466.918 451.17 448.268 461.07 448.268 483.51C448.268 497.57 459.938 508.88 485.008 519.09C508.368 528.86 519.718 539.32 519.718 551.06C519.718 566.17 508.178 575.18 488.838 575.18C468.558 575.18 456.998 562.52 455.808 550H446.158C447.948 568.27 462.478 582.01 482.908 584.46L484.508 584.65V600.09H494.398V584.7L495.958 584.48C511.468 582.31 529.588 572.09 529.588 550.45Z" stroke="#1F63C9" stroke-width="20" stroke-miterlimit="10"/>
</svg>
