 <svg xmlns="http://www.w3.org/2000/svg" width="1002" height="1002" fill="none">
    <circle cx="501" cy="501" r="500.5" stroke="#2B2DB5" stroke-opacity=".4" />
    <circle cx="502" cy="499" r="360.5" stroke="#2B2DB5" stroke-opacity=".2" />
    <path fill="#505050"
      d="M991.87 678c0 13.185-10.689 23.874-23.874 23.874-13.185 0-23.873-10.689-23.873-23.874 0-13.185 10.688-23.873 23.873-23.873S991.87 664.815 991.87 678"
      opacity=".2" />
    <g fill="#fff" opacity=".8">
      <path d="m967.92 666.923-.147.501v14.544l.147.147 6.751-3.991-6.751-11.201Z" />
      <path
        d="m967.92 666.923-6.751 11.201 6.751 3.991v-15.192ZM967.92 684.311l-.083.102v5.18l.083.243 6.755-9.513-6.755 3.988Z" />
      <path d="M967.92 689.836v-5.525l-6.751-3.988 6.751 9.513ZM967.92 682.115l6.751-3.99-6.751-3.069v7.059Z" />
      <path d="m961.169 678.124 6.751 3.991v-7.059l-6.751 3.068Z" />
    </g>
    <path fill="#F7931A"
      d="M320.235 210.669c-3.406 13.661-17.243 21.974-30.905 18.568-13.656-3.406-21.97-17.243-18.563-30.903 3.404-13.662 17.24-21.977 30.898-18.571 13.662 3.406 21.975 17.244 18.569 30.906h.001Z"
      opacity=".2" />
    <path fill="#F7931A" fill-rule="evenodd"
      d="M303.18 201.538c.344-2.302-1.409-3.54-3.805-4.365l.777-3.118-1.898-.473-.757 3.036a73.544 73.544 0 0 0-1.52-.358l.762-3.056-1.897-.473-.778 3.117a62.68 62.68 0 0 1-1.212-.285l.002-.01-2.617-.653-.505 2.027s1.408.323 1.378.343c.769.192.908.7.885 1.104l-.886 3.552c.053.013.122.033.197.063l-.2-.05-1.241 4.976c-.094.234-.333.584-.87.451.019.028-1.38-.344-1.38-.344l-.942 2.173 2.471.616c.278.07.554.142.826.213h.001l.525.136-.785 3.154 1.896.473.778-3.12c.517.141 1.02.27 1.512.393l-.775 3.105 1.898.473.785-3.148c3.237.613 5.671.366 6.694-2.561.826-2.357-.04-3.716-1.743-4.604 1.24-.287 2.174-1.102 2.423-2.787h.001Zm-4.337 6.081c-.539 2.163-3.926 1.268-5.474.859-.139-.037-.263-.07-.368-.096l1.042-4.178c.129.032.287.068.466.108 1.602.359 4.884 1.096 4.334 3.307Zm-4.012-5.246c1.292.345 4.108 1.096 4.598-.869.502-2.011-2.236-2.617-3.574-2.913-.15-.033-.283-.062-.391-.089l-.945 3.789.312.082Z"
      clip-rule="evenodd" />
    <path fill="#3CC8C8"
      d="M866.913 409c0 8.79-7.125 15.916-15.915 15.916S835.082 417.79 835.082 409s7.126-15.916 15.916-15.916 15.915 7.126 15.915 15.916"
      opacity=".2" />
    <path fill="#3CC8C8" fill-rule="evenodd"
      d="M852.069 401.122c.213-.407-.278-.898-.68-.686-.327.132-.41.61-.156.852.241.253.712.165.836-.166Zm-4.479.179c.025-.269-.284-.496-.529-.394-.34.092-.378.633-.048.762.249.139.603-.076.577-.368Zm8.335.376c-.382-.046-.442-.653-.075-.775.286-.141.547.123.589.396-.06.233-.253.447-.514.379Zm-6.95 1.698c.063-.48-.521-.868-.929-.607-.383.197-.436.787-.088 1.044.359.327.995.047 1.017-.437Zm5.309-.33c.182-.475.921-.489 1.129-.027.205.359-.048.804-.413.927-.484.091-.944-.438-.716-.9Zm-2.669.133c-.383.028-.751.332-.747.74-.022.333.214.605.494.744l.085.006c.158.013.322.026.465-.054.368-.165.548-.657.345-1.015-.109-.26-.387-.369-.642-.421Zm-7.183 1.334c.373-.232.877.191.735.601-.078.354-.549.498-.819.272-.287-.212-.242-.721.084-.873Zm14.622.44c.038-.404-.485-.689-.802-.441-.325.202-.289.74.057.897.314.19.766-.088.745-.456Zm-6.376.293c.522-.19 1.143.037 1.441.508.393.575.184 1.451-.426 1.782-.632.39-1.554.059-1.788-.654-.265-.638.121-1.436.773-1.636Zm-1.428.616c-.28-.598-1.059-.83-1.639-.554-.617.279-.901 1.101-.581 1.705.285.626 1.116.882 1.706.544.589-.301.843-1.112.514-1.695Zm-4.709.507c.044-.377.396-.622.751-.648a.831.831 0 0 1 .73.738c-.025.388-.321.766-.728.764-.447.039-.839-.411-.753-.854Zm10.145.09c.02-.533-.617-.926-1.076-.656-.493.235-.53 1.011-.055 1.287.457.331 1.162-.067 1.131-.631Zm-8.323 1.333a1.253 1.253 0 0 1 1.414.605c.289.501.171 1.198-.277 1.566-.575.54-1.634.323-1.94-.413-.351-.676.076-1.58.803-1.758Zm7.232.53c-.281-.48-.894-.684-1.415-.533-.734.203-1.122 1.143-.736 1.807.318.643 1.214.859 1.793.448.552-.354.729-1.173.358-1.722Zm-10.684.094c.464-.177.978.339.79.804-.115.423-.705.579-1.01.267-.357-.293-.225-.944.22-1.071Zm13.229-.08c-.394.022-.675.365-.661.754.077.181.17.369.352.463.389.217.94-.097.911-.558.025-.349-.284-.608-.602-.659Zm-15.509.307c.279-.123.624.122.56.435-.015.354-.532.49-.723.194-.168-.205-.067-.523.163-.629Zm18.178.185c-.078-.231-.393-.333-.589-.192-.327.177-.199.786.197.75.282.042.524-.304.392-.558Zm-10.93 1.509c.734-.193 1.523.426 1.527 1.189.048.772-.729 1.456-1.48 1.277-.581-.094-1.037-.659-1.018-1.252a1.268 1.268 0 0 1 .971-1.214Zm4.452 1.199c.012-.781-.801-1.411-1.546-1.2a1.26 1.26 0 0 0-.913.93c-.193.679.318 1.447 1.01 1.538.736.15 1.489-.511 1.449-1.268Zm-7.15-.73c.515-.089.998.492.789.986-.152.527-.911.67-1.247.24-.394-.414-.1-1.169.458-1.226Zm9.513.734c.036-.504-.529-.906-.988-.711-.556.178-.649 1.034-.139 1.324.449.324 1.146-.058 1.127-.613Zm1.395 1.703c-.18-.339.147-.788.519-.725.175-.003.301.128.414.247l.02.021.004.034c.024.193.052.415-.104.561-.224.287-.732.205-.853-.138Zm-12.888-.105c.078-.411-.423-.76-.771-.526-.332.171-.343.704-.023.891.299.207.752-.001.794-.365Zm6.108.235c.456-.203 1.036.198.993.705.034.56-.684.948-1.13.612-.495-.289-.413-1.139.137-1.317Zm-2.312 1.34c.035-.439-.486-.795-.874-.589-.274.103-.385.408-.39.682.093.251.284.515.575.521a.62.62 0 0 0 .689-.614Zm5.579-.583c.4-.249.967.109.929.578.011.491-.631.805-1.002.483-.36-.253-.316-.86.073-1.061Zm1.443 2.142c-.289.062-.498.389-.32.661.182.315.714.202.748-.165.049-.272-.197-.448-.428-.496Zm-9.229.425c.071-.215.242-.429.493-.373.365.026.474.583.154.754-.288.196-.622-.072-.647-.381Zm5.045-.057c-.269-.169-.677-.014-.747.304-.128.321.179.71.519.67.184.004.325-.127.435-.259.021-.089.043-.178.068-.267l-.002-.005c-.045-.17-.098-.367-.273-.443Z"
      clip-rule="evenodd" />
  </svg>