 <svg xmlns="http://www.w3.org/2000/svg" width="806" height="780" fill="none">
    <circle cx="390" cy="390" r="389.5" stroke="#2B2DB5" stroke-opacity=".4" />
    <circle cx="391" cy="388" r="280.5" stroke="#2B2DB5" stroke-opacity=".2" />
    <path fill="#00A478"
      d="M805.824 455.5c0 17.855-14.474 32.329-32.329 32.329s-32.328-14.474-32.328-32.329c0-17.854 14.473-32.328 32.328-32.328 17.855 0 32.329 14.474 32.329 32.328Z"
      opacity=".2" />
    <path fill="#00A478" d="M770.18 454.935v-5.656h-7.671v-4.958h21.436v5.028h-7.671v5.586h-6.094Z" />
    <path fill="#00A478" fill-rule="evenodd"
      d="M759.211 455.563c0-1.885 6.166-3.421 13.837-3.421 7.671 0 13.836 1.536 13.836 3.421 0 1.885-6.165 3.421-13.836 3.421s-13.837-1.536-13.837-3.421Zm26.526 0c-.502-.698-4.66-2.863-12.689-2.863-8.03 0-12.188 2.095-12.69 2.863.502.698 4.66 1.746 12.69 1.746 8.101 0 12.187-1.048 12.689-1.746Z"
      clip-rule="evenodd" />
    <path fill="#00A478"
      d="M776.274 456.681v-3.91c-1.004-.07-2.079-.14-3.155-.14-1.003 0-1.935 0-2.867.07v3.91c.86 0 1.864.07 2.867.07 1.076.069 2.151.069 3.155 0ZM773.048 458.985c-1.004 0-1.936 0-2.868-.069v10.403h6.022v-10.473c-1.003.07-2.079.139-3.154.139Z" />
    <path fill="#BEBEBE"
      d="M466.894 112.501c0 10.713-8.684 19.397-19.397 19.397s-19.397-8.684-19.397-19.397 8.684-19.398 19.397-19.398 19.397 8.685 19.397 19.398Z"
      opacity=".1" />
    <path fill="#E4E4E4"
      d="m446.819 115.764.87-3.277 2.06-.753.513-1.925-.018-.048-2.028.741 1.461-5.502h-4.144l-1.91 7.18-1.596.583-.527 1.985 1.594-.582-1.126 4.231h11.029l.707-2.633h-6.885Z" />
  </svg>
