  <svg xmlns="http://www.w3.org/2000/svg" width="1002" height="1002" fill="none">
    <circle r="500.5" stroke="#702BB5" stroke-opacity=".4" transform="matrix(-1 0 0 1 501 501)" />
    <circle r="360.5" stroke="#702BB5" stroke-opacity=".2" transform="matrix(-1 0 0 1 500 499)" />
    <path fill="#3CC8C8"
      d="M130.087 568.001c0 8.79 7.125 15.915 15.915 15.915s15.916-7.125 15.916-15.915-7.126-15.916-15.916-15.916-15.915 7.126-15.915 15.916Z"
      opacity=".2" />
    <path fill="#3CC8C8" fill-rule="evenodd"
      d="M144.931 560.122c-.213-.407.278-.898.68-.686.328.132.411.61.156.852-.241.253-.711.165-.836-.166Zm4.479.179c-.025-.269.285-.496.529-.394.34.092.378.633.048.762-.249.139-.603-.076-.577-.368Zm-8.335.376c.382-.046.443-.653.075-.775-.285-.141-.547.123-.589.396.06.233.253.447.514.379Zm6.95 1.698c-.062-.48.521-.868.929-.607.383.197.436.787.088 1.044-.359.327-.995.047-1.017-.437Zm-5.309-.33c-.182-.475-.921-.489-1.129-.027-.205.359.048.804.413.927.484.091.944-.438.716-.9Zm2.669.133c.383.028.751.332.747.74.022.333-.214.605-.493.744l-.086.006c-.158.013-.322.026-.465-.054-.367-.165-.548-.657-.345-1.015.11-.26.387-.369.642-.421Zm7.184 1.334c-.374-.232-.877.191-.736.601.078.354.549.498.819.272.288-.212.242-.721-.083-.873Zm-14.623.44c-.038-.404.485-.689.802-.441.325.202.289.74-.057.897-.314.19-.766-.088-.745-.456Zm6.376.293c-.522-.19-1.143.037-1.441.508-.393.575-.184 1.451.426 1.782.632.39 1.554.059 1.788-.654.265-.638-.121-1.436-.773-1.636Zm1.428.616c.28-.598 1.06-.83 1.639-.554.617.279.901 1.101.581 1.705-.285.626-1.116.882-1.706.544-.588-.301-.843-1.112-.514-1.695Zm4.709.507c-.044-.377-.396-.622-.751-.648a.832.832 0 0 0-.73.738c.025.388.321.766.728.764.447.039.839-.411.753-.854Zm-10.145.09c-.02-.533.617-.926 1.076-.656.493.235.53 1.011.055 1.287-.457.331-1.162-.067-1.131-.631Zm8.323 1.333a1.253 1.253 0 0 0-1.414.605c-.288.501-.171 1.198.277 1.566.575.54 1.634.323 1.94-.413.351-.676-.075-1.58-.803-1.758Zm-7.232.53c.281-.48.894-.684 1.416-.533.733.203 1.121 1.143.735 1.807-.318.643-1.214.859-1.792.448-.553-.354-.73-1.173-.359-1.722Zm10.684.094c-.463-.177-.977.339-.79.804.115.423.705.579 1.01.267.357-.293.225-.944-.22-1.071Zm-13.229-.08c.394.022.675.365.661.754-.077.181-.17.369-.352.463-.389.217-.939-.097-.91-.558-.026-.349.283-.608.601-.659Zm15.509.307c-.279-.123-.624.122-.56.435.015.354.532.49.723.194.168-.205.067-.523-.163-.629Zm-18.178.185c.078-.231.393-.333.589-.192.327.177.199.786-.197.75-.282.042-.524-.304-.392-.558Zm10.931 1.509c-.734-.193-1.523.426-1.528 1.189-.048.772.729 1.456 1.481 1.277.58-.094 1.036-.659 1.017-1.252a1.269 1.269 0 0 0-.97-1.214Zm-4.453 1.199c-.012-.781.801-1.411 1.546-1.2.441.11.815.478.913.93.193.679-.318 1.447-1.01 1.538-.736.15-1.488-.511-1.449-1.268Zm7.151-.73c-.516-.089-.999.492-.79.986.152.527.911.67 1.247.24.394-.414.1-1.169-.457-1.226Zm-9.514.734c-.036-.504.529-.906.988-.711.556.178.649 1.034.14 1.324-.45.324-1.147-.058-1.128-.613Zm-1.394 1.703c.18-.339-.147-.788-.52-.725-.175-.003-.301.128-.414.247l-.02.021-.004.034c-.024.193-.052.415.104.561.224.287.732.205.854-.138Zm12.887-.105c-.078-.411.423-.76.771-.526.332.171.344.704.023.891-.299.207-.752-.001-.794-.365Zm-6.108.235c-.456-.203-1.036.198-.993.705-.034.56.684.948 1.13.612.495-.289.413-1.139-.137-1.317Zm2.312 1.34c-.035-.439.486-.795.874-.589.274.103.385.408.39.682-.093.251-.284.515-.575.521a.62.62 0 0 1-.689-.614Zm-5.579-.583c-.4-.249-.967.109-.929.578-.01.491.631.805 1.003.483.359-.253.316-.86-.074-1.061Zm-1.442 2.142c.288.062.497.389.319.661-.182.315-.714.202-.748-.165-.048-.272.197-.448.429-.496Zm9.228.425c-.071-.215-.242-.429-.493-.373-.365.026-.473.583-.154.754.288.196.622-.072.647-.381Zm-5.044-.057c.268-.169.676-.014.746.304.128.321-.179.71-.519.67-.183.004-.325-.127-.435-.259a8.681 8.681 0 0 0-.067-.267l.001-.005c.045-.17.098-.367.274-.443Z"
      clip-rule="evenodd" />
    <path fill="#505050"
      d="M793.761 757c0 24.173-19.595 43.769-43.767 43.769-24.173 0-43.769-19.596-43.769-43.769 0-24.172 19.596-43.768 43.769-43.768 24.172 0 43.767 19.596 43.767 43.768Z"
      opacity=".2" />
    <g fill="#fff" opacity=".8">
      <path d="m749.854 736.692-.271.919v26.664l.271.269 12.376-7.315-12.376-20.537Z" />
      <path
        d="m749.854 736.692-12.377 20.537 12.377 7.316v-27.853ZM749.854 768.571l-.153.186v9.498l.153.445 12.384-17.441-12.384 7.312Z" />
      <path
        d="M749.854 778.7v-10.129l-12.377-7.312 12.377 17.441ZM749.854 764.545l12.376-7.316-12.376-5.625v12.941ZM737.477 757.228l12.376 7.316v-12.941l-12.376 5.625Z" />
    </g>
    <path fill="#F7931A"
      d="M775.235 248.669c-3.406 13.661-17.243 21.974-30.905 18.568-13.656-3.406-21.97-17.243-18.563-30.903 3.404-13.662 17.24-21.977 30.898-18.571 13.662 3.406 21.975 17.244 18.569 30.906h.001Z"
      opacity=".2" />
    <path fill="#F7931A" fill-rule="evenodd"
      d="M758.18 239.538c.344-2.302-1.409-3.54-3.805-4.365l.777-3.118-1.898-.473-.757 3.036a73.544 73.544 0 0 0-1.52-.358l.762-3.056-1.897-.473-.778 3.117a62.68 62.68 0 0 1-1.212-.285l.002-.01-2.617-.653-.505 2.027s1.408.323 1.378.343c.769.192.908.7.885 1.104l-.886 3.552c.053.013.122.033.197.063l-.2-.05-1.241 4.976c-.094.234-.333.584-.87.451.019.028-1.38-.344-1.38-.344l-.942 2.173 2.471.616c.278.07.554.142.826.213h.001l.525.136-.785 3.154 1.896.473.778-3.12c.517.141 1.02.27 1.512.393l-.775 3.105 1.898.473.785-3.148c3.237.613 5.671.366 6.694-2.561.826-2.357-.04-3.716-1.743-4.604 1.24-.287 2.174-1.102 2.423-2.787h.001Zm-4.337 6.081c-.539 2.163-3.926 1.268-5.474.859-.139-.037-.263-.07-.368-.096l1.042-4.178c.129.032.287.068.466.108 1.602.359 4.884 1.096 4.334 3.307Zm-4.012-5.246c1.292.345 4.108 1.096 4.598-.869.502-2.011-2.236-2.617-3.574-2.913-.15-.033-.283-.062-.391-.089l-.945 3.789.312.082Z"
      clip-rule="evenodd" />
  </svg>
